<svg width="1233" height="491" viewBox="0 0 1233 491" fill="none" xmlns="http://www.w3.org/2000/svg">
    <g clip-path="url(#clip0_19238_1272)">
        <path d="M0 367.1H18.82L48.19 452.93L78.68 367.1H96L52.71 489.83H42.54L0 367.1Z"
            fill="white" />
        <path
            d="M97.0798 394.63L86.5898 423.57L104.66 489.83H124.24L166.78 367.1H147.2L115.58 462.35L97.0798 394.63Z"
            fill="white" />
        <path
            d="M163.01 489.83H181.79L218.49 398.63L255.34 489.83H274.26L224 367.43H212L163.01 489.83Z"
            fill="white" />
        <path
            d="M307.86 489.83H326.92V453.97H354.73L378.02 489.83H398.35L372.23 451.01C372.23 451.01 397.5 440 397.5 418.96C397.5 397.92 397.64 399.2 397.64 399.2C397.64 399.2 388.6 368.14 360.51 367.58H307.85V385.09H354.86C354.86 385.09 381.12 383.5 381.12 411.35C381.12 428.71 367.2 438.82 361.5 438.74C335.95 438.39 308.28 438.74 308.28 438.74L307.86 489.85V489.83Z"
            fill="white" />
        <path
            d="M493.21 369.45C489.79 368.21 486.18 367.57 482.54 367.57H433.1V489.83H451.77V457.45H485.37C485.37 457.45 522.39 447.18 522.39 417.62C522.39 390.12 517 378.07 493.21 369.45ZM503.76 414.91C503.76 428.91 492.99 440.39 479.28 441.54V441.64H450.3V382.2H475.52C476.02 382.17 476.52 382.15 477.03 382.15C477.54 382.15 478.04 382.17 478.54 382.2H479.28V382.26C492.99 383.4 503.76 394.88 503.76 408.89V414.91Z"
            fill="white" />
        <path
            d="M678.59 384.51L667.01 396.09C667.01 396.09 657.69 382.82 639.62 379.43C621.55 376.04 613.93 389.03 613.36 391.57C612.79 394.11 609.41 405.12 621.27 411.9C633.13 418.68 650.35 420.37 659.11 424.89C667.87 429.41 678.59 435.9 678.59 449.74C678.59 463.58 677.74 476 659.95 483.9C642.16 491.8 633.97 489.83 633.97 489.83V473.74C633.97 473.74 649.13 474.08 655.43 467.72C668.98 454.03 659.1 443.57 655.57 441.6C646.79 436.7 631.43 432.8 617.31 427.44C603.19 422.08 591.9 412.76 593.87 392.71C595.84 372.66 618.43 363.63 628.88 363.91C639.33 364.19 648.93 364.19 662.48 370.69C676.03 377.19 678.57 384.53 678.57 384.53L678.59 384.51Z"
            fill="white" />
        <path d="M715.289 367.57V489.83H733.929V382.16H770.629V367.57H715.289Z" fill="white" />
        <path
            d="M806.961 367.57H823.051V444.37C823.051 444.37 825.971 462.82 833.121 466.58C840.271 470.34 843.101 474.49 856.841 473.92C870.581 473.35 878.861 466.39 881.501 459.05C884.141 451.71 884.701 450.01 885.081 439.1C885.461 428.19 885.081 367.57 885.081 367.57H903.531V445.69C903.531 445.69 900.611 469.22 890.641 476.75C880.671 484.28 876.901 490.11 855.251 489.83C833.601 489.55 820.991 479.95 816.291 473.74C811.591 467.53 806.131 453.6 806.131 442.68V367.57H806.981H806.961Z"
            fill="white" />
        <path
            d="M938.35 367.57H972.23C972.23 367.57 997.83 370.96 1009.5 389.41C1021.17 407.86 1023.43 421.03 1022.49 432.14C1021.55 443.25 1016.4 463.11 999.71 477.5C993.72 482.67 977.31 489.84 972.6 489.84H937.78V473.92H962.09C962.09 473.92 973.01 474.66 976.35 472.93C981.07 470.48 989.97 464.63 995.53 457.97C1003.32 448.63 1006.71 431.99 1005.2 421.61C1003.49 409.81 998.35 399.81 990.16 392.89C980.79 384.97 973.51 382.07 970.72 382.07H937.59V367.58H938.34L938.35 367.57Z"
            fill="white" />
        <path d="M1074.71 367.57H1057.49V489.84H1074.71V367.57Z" fill="white" />
        <path
            d="M1171.52 364.41C1137.57 364.41 1110.04 392.45 1110.04 427.03C1110.04 461.61 1137.57 489.65 1171.52 489.65C1205.47 489.65 1233 461.61 1233 427.03C1233 392.45 1205.47 364.41 1171.52 364.41ZM1171.52 475.59C1146.88 475.59 1126.91 453.85 1126.91 427.03C1126.91 400.21 1146.88 378.47 1171.52 378.47C1196.16 378.47 1216.13 400.21 1216.13 427.03C1216.13 453.85 1196.16 475.59 1171.52 475.59Z"
            fill="white" />
        <path
            d="M593.659 0L593.699 0.06H438.129C427.369 0.06 420.749 11.75 426.359 20.86L564.409 245.31C569.779 254.05 582.569 254.05 587.949 245.31L676.059 102.06L739.709 0H593.659ZM575.819 202.56L473.989 33.4H677.659L575.829 202.56H575.819Z"
            fill="url(#paint0_linear_19238_1272)" />
        <path style="mix-blend-mode:lighten"
            d="M530.719 0L594.369 102.06L682.479 245.31C687.849 254.05 700.639 254.05 706.019 245.31L844.069 20.86C849.679 11.74 843.059 0.06 832.299 0.06H676.729L676.779 0H530.729H530.719ZM592.779 33.4H796.449L694.619 202.56L592.789 33.4H592.779Z"
            fill="url(#paint1_linear_19238_1272)" />
    </g>
    <defs>
        <linearGradient id="paint0_linear_19238_1272" x1="583.279" y1="-14.01" x2="567.649"
            y2="242.81" gradientUnits="userSpaceOnUse">
            <stop stop-color="#C84159" />
            <stop offset="1" stop-color="#6697D0" />
        </linearGradient>
        <linearGradient id="paint1_linear_19238_1272" x1="831.229" y1="121.03" x2="515.929"
            y2="128.1" gradientUnits="userSpaceOnUse">
            <stop stop-color="#713C97" />
            <stop offset="1" stop-color="#5BC2EF" />
        </linearGradient>
        <clipPath id="clip0_19238_1272">
            <rect width="1233" height="490.05" fill="white" />
        </clipPath>
    </defs>
</svg>